<svg width="66" height="53" viewBox="0 0 66 53" fill="none" xmlns="http://www.w3.org/2000/svg" xmlns:xlink="http://www.w3.org/1999/xlink" id="twitter-svg"><path d="M65.1057 6.34976C62.6588 7.41129 60.0711 8.11302 57.4232 8.43314C60.2168 6.76422 62.3103 4.13871 63.3153 1.04364C60.69 2.60639 57.8163 3.70743 54.819 4.29893C52.8155 2.12626 50.1475 0.680018 47.2335 0.187022C44.3195 -0.305974 41.3243 0.182161 38.7177 1.57487C36.111 2.96758 34.0403 5.18609 32.8303 7.88246C31.6204 10.5788 31.3396 13.6005 32.032 16.4737C26.724 16.2052 21.5319 14.8231 16.7929 12.4172C12.0539 10.0112 7.87403 6.63522 4.52484 2.50852C3.35013 4.5599 2.73287 6.88304 2.73444 9.24696C2.73027 11.4423 3.26901 13.6045 4.30269 15.5413C5.33636 17.478 6.8329 19.1291 8.65905 20.3475C6.53653 20.2897 4.45937 19.7202 2.60423 18.6873V18.85C2.62013 21.9259 3.69798 24.9019 5.65545 27.2746C7.61292 29.6473 10.3298 31.271 13.3467 31.8712C12.1854 32.2246 10.9797 32.4109 9.76585 32.4246C8.92563 32.4148 8.0875 32.3386 7.25928 32.1967C8.11838 34.8426 9.7809 37.155 12.0155 38.812C14.2501 40.4689 16.9456 41.3882 19.727 41.4417C15.0303 45.1373 9.2316 47.1543 3.25528 47.171C2.16716 47.1746 1.07989 47.1093 0 46.9757C6.1018 50.9154 13.2126 53.0068 20.4757 52.998C25.4879 53.05 30.4601 52.1028 35.1021 50.2117C39.7441 48.3206 43.9627 45.5235 47.5115 41.9837C51.0604 38.4439 53.8683 34.2325 55.7713 29.5954C57.6743 24.9583 58.6343 19.9885 58.5951 14.9763C58.5951 14.4229 58.5951 13.8369 58.5951 13.251C61.1495 11.346 63.3526 9.01071 65.1057 6.34976Z" fill="#252422" /></svg>