<svg width="104" height="90" viewBox="0 0 104 90" fill="none" xmlns="http://www.w3.org/2000/svg">
<path d="M72.3375 45.047L46.3553 90L0 9.58728L5.43049 0L26.089 35.5413L31.5696 26.0576L35.4974 19.2499L46.4431 19.1871L31.2591 45.0502L46.349 70.7031L51.8391 61.3322L55.7669 54.5277H47.9082L42.3428 44.9529L72.3375 45.047Z" fill="#DBD6CE"/>
<path d="M68.4066 19.1871L72.3375 25.9948L66.8004 35.5413L51.8391 9.40846L22.0733 9.62179L27.6387 19.2499L31.5696 26.0576L26.0889 35.5413L5.43048 0L98.1818 0.106665L103.706 9.63748L62.7503 9.58728L68.4066 19.1871Z" fill="#FFFCF2"/>
<path d="M103.706 9.63748L57.3731 89.9655L46.3553 90L72.3376 45.047L87.2487 19.2499L76.2653 19.1871H68.4067L62.7503 9.58728L103.706 9.63748Z" fill="#CCC5B9"/>
<path d="M87.2486 19.2499L72.3375 45.0471L42.3428 44.953L47.9082 35.5414H66.8004L72.3375 25.9949L76.2653 19.1871L87.2486 19.2499Z" fill="#ABA08C"/>
<path d="M47.9082 54.5277L51.8391 61.3323L46.349 70.7031L31.259 45.0502L46.4431 19.1871L51.8391 28.7336L47.9082 35.5414L42.3428 44.953L47.9082 54.5277Z" fill="#FFFCF2"/>
<path d="M66.8004 35.5413H55.7669L51.8391 28.7336L46.4431 19.1871L35.4974 19.2498H27.6388L22.0734 9.62178L51.8391 9.40845L66.8004 35.5413Z" fill="#CCC5B9"/>
</svg>
