<svg width="121" height="66" viewBox="0 0 121 66" fill="none" xmlns="http://www.w3.org/2000/svg" class="svg-initial-logo">
<path d="M117.914 21.7108V27.1878L112.58 30.1319V24.4681L117.914 21.7108Z" fill="#CC4613"/>
<path d="M107.202 32.9254V38.5201L101.822 41.2382V52.426L96.5118 55.4158V21.6527L101.822 24.4571V35.912L107.202 32.9254Z" fill="#CC4613"/>
<path d="M112.58 24.556V30.1319L101.822 24.4571L96.5118 21.6527V55.4157L91.0898 52.426V13.2174L112.58 24.556Z" fill="#92320E"/>
<path d="M117.914 21.7108L112.58 24.4682V24.5561L91.0898 13.2175L96.5511 10.3691L117.914 21.7108Z" fill="#EB5E28"/>
<path d="M107.202 32.9254L101.822 35.9119V30.088L107.202 32.9254Z" fill="#EB5E28"/>
<path d="M67.9965 34.3402L54.9919 56.84L31.7902 16.5919L34.5082 11.7933L44.8482 29.5824L47.5914 24.8356L49.5589 21.4282L55.0358 21.3968L47.4359 34.3418L54.9887 47.1815L57.7366 42.4912L59.7041 39.0854H55.7707L52.9851 34.2931L67.9965 34.3402Z" fill="#CC4613"/>
<path d="M66.0307 21.3967L67.9966 24.8041L65.2267 29.5823L57.7368 16.5023L42.84 16.6091L45.624 21.4281L47.5915 24.8355L44.8483 29.5823L34.5084 11.7932L80.9322 11.8482L83.6989 16.617L63.198 16.5918L66.0307 21.3967Z" fill="#EB5E28"/>
<path d="M83.6989 16.617L60.5067 56.8227L54.992 56.84L67.9966 34.3402L75.4599 21.4282L69.9641 21.3968H66.0307L63.198 16.5919L83.6989 16.617Z" fill="#92320E"/>
<path d="M75.4599 21.4281L67.9966 34.3401L52.9852 34.293L55.7708 29.5823H65.2267L67.9966 24.8041L69.9641 21.3967L75.4599 21.4281Z" fill="#571E08"/>
<path d="M55.7708 39.0854L57.7367 42.4912L54.9888 47.1814L47.436 34.3417L55.0359 21.3967L57.7367 26.1749L55.7708 29.5823L52.9852 34.293L55.7708 39.0854Z" fill="#EB5E28"/>
<path d="M65.2267 29.5823H59.7042L57.7367 26.1749L55.0359 21.3967L49.559 21.4281H45.624L42.84 16.6091L57.7367 16.5023L65.2267 29.5823Z" fill="#92320E"/>
<path d="M19.3571 23.1115V29.7897L13.8597 26.5393L8.36076 23.2858V55.3153L3 51.7509V13.9178L19.3571 23.1115Z" fill="#92320E"/>
<path d="M24.7743 32.6647V45.4228L8.36072 55.3153V23.2858L13.8597 26.5393V45.4385L19.357 42.2212V35.8162L24.7743 32.6647Z" fill="#EB5E28"/>
<path d="M24.7743 20.0291V26.6037L19.3571 29.7897V23.2167L24.7743 20.0291Z" fill="#CC4613"/>
<path d="M19.3571 23.2167V23.1115L3 13.9178L8.41101 10.6863L24.7744 20.0291L19.3571 23.2167Z" fill="#EB5E28"/>
<path d="M24.7744 32.6648L19.3571 35.8162L13.9413 32.9364L19.3571 29.7897L24.7744 32.6648Z" fill="#CC4613"/>
<path d="M19.357 35.8162V42.2212L13.8597 38.9205V32.9819L13.9413 32.9364L19.357 35.8162Z" fill="#92320E"/>
<path d="M19.357 42.2212L13.8597 45.4385V38.9205L19.357 42.2212Z" fill="#571E08"/>
<path d="M3 63H117.914" stroke="#EB5E28" stroke-width="5" stroke-miterlimit="10" stroke-linecap="round"/>
<path d="M3 3H117.914" stroke="#EB5E28" stroke-width="5" stroke-miterlimit="10" stroke-linecap="round"/>
</svg>
