 <svg width="54" height="53" viewBox="0 0 54 53" fill="none" xmlns="http://www.w3.org/2000/svg" xmlns:xlink="http://www.w3.org/1999/xlink" id="github-svg"><path d="M26.9999 0C20.5887 0.000267533 14.3868 2.29619 9.50391 6.47697C4.621 10.6577 1.37572 16.4506 0.348731 22.8189C-0.678255 29.1872 0.580078 35.7155 3.89857 41.2356C7.21707 46.7557 12.3792 50.9075 18.4612 52.948C19.8112 53.1858 20.3175 52.3707 20.3175 51.6574C20.3175 51.0121 20.2837 48.8724 20.2837 46.597C13.5 47.8536 11.745 44.9329 11.205 43.4045C10.6058 41.9181 9.65595 40.6009 8.43751 39.5667C7.49252 39.0572 6.14253 37.8006 8.40374 37.7667C9.26716 37.861 10.0953 38.1633 10.8179 38.6481C11.5405 39.1329 12.1364 39.7858 12.555 40.5516C12.9243 41.2191 13.4208 41.8068 14.0162 42.2809C14.6116 42.7551 15.294 43.1063 16.0245 43.3145C16.755 43.5228 17.5192 43.5839 18.2732 43.4944C19.0272 43.4049 19.7563 43.1666 20.4186 42.7931C20.5355 41.4118 21.1472 40.1204 22.1399 39.1592C16.1325 38.4799 9.855 36.1364 9.855 25.7439C9.81706 23.0436 10.8072 20.431 12.6225 18.4419C11.7971 16.095 11.8936 13.5194 12.8925 11.2418C12.8925 11.2418 15.1536 10.5285 20.3174 14.0267C24.7354 12.804 29.3994 12.804 33.8173 14.0267C38.981 10.4946 41.2423 11.2418 41.2423 11.2418C42.2413 13.5194 42.3379 16.095 41.5123 18.4419C43.333 20.4276 44.324 23.0424 44.2798 25.7439C44.2798 36.1704 37.9685 38.4799 31.9611 39.1592C32.6054 39.8164 33.1017 40.6055 33.4162 41.4728C33.7306 42.3401 33.8559 43.2653 33.7836 44.1857C33.7836 47.8198 33.7498 50.7405 33.7498 51.6575C33.7498 52.3708 34.2561 53.2198 35.606 52.9481C41.6774 50.8909 46.8247 46.7295 50.129 41.2065C53.4334 35.6836 54.6798 29.1586 53.6457 22.7965C52.6116 16.4343 49.3643 10.649 44.4835 6.47334C39.6027 2.29765 33.4062 0.00335527 26.9999 0Z" fill="#252422" /></svg>