<svg width="53" height="53" viewBox="0 0 53 53" fill="none" xmlns="http://www.w3.org/2000/svg" xmlns:xlink="http://www.w3.org/1999/xlink" id="linkedin-svg"><path d="M48.7858 0.000370546H3.89545C3.39084 -0.0066376 2.88979 0.0858252 2.42092 0.272479C1.95204 0.459132 1.52453 0.73632 1.1628 1.08821C0.801062 1.4401 0.512189 1.85981 0.312674 2.32335C0.11316 2.7869 0.00691215 3.28521 0 3.78982V49.2102C0.00691215 49.7148 0.11316 50.2131 0.312674 50.6766C0.512189 51.1402 0.801062 51.5599 1.1628 51.9118C1.52453 52.2637 1.95204 52.5409 2.42092 52.7275C2.88979 52.9142 3.39084 53.0066 3.89545 52.9996H48.7858C49.2904 53.0066 49.7915 52.9142 50.2603 52.7275C50.7292 52.5409 51.1567 52.2637 51.5185 51.9118C51.8802 51.5599 52.1691 51.1402 52.3686 50.6766C52.5681 50.2131 52.6744 49.7148 52.6813 49.2102V3.78982C52.6744 3.28521 52.5681 2.7869 52.3686 2.32335C52.1691 1.85981 51.8802 1.4401 51.5185 1.08821C51.1567 0.73632 50.7292 0.459132 50.2603 0.272479C49.7915 0.0858252 49.2904 -0.0066376 48.7858 0.000370546V0.000370546ZM15.9793 44.3607H8.02939V20.5111H15.9793V44.3607ZM12.0043 17.1721C10.9079 17.1721 9.85646 16.7366 9.08119 15.9613C8.30593 15.1861 7.87039 14.1346 7.87039 13.0382C7.87039 11.9418 8.30593 10.8903 9.08119 10.115C9.85646 9.33979 10.9079 8.90425 12.0043 8.90425C12.5865 8.83822 13.1761 8.89591 13.7344 9.07353C14.2928 9.25116 14.8073 9.54472 15.2443 9.93498C15.6814 10.3252 16.031 10.8034 16.2704 11.3382C16.5098 11.873 16.6336 12.4523 16.6336 13.0382C16.6336 13.6241 16.5098 14.2034 16.2704 14.7382C16.031 15.273 15.6814 15.7511 15.2443 16.1414C14.8073 16.5317 14.2928 16.8252 13.7344 17.0028C13.1761 17.1805 12.5865 17.2382 12.0043 17.1721V17.1721ZM44.6519 44.3607H36.702V31.5614C36.702 28.355 35.5625 26.2615 32.674 26.2615C31.7801 26.268 30.9097 26.5484 30.18 27.0649C29.4503 27.5814 28.8965 28.3091 28.5931 29.15C28.3857 29.7728 28.2959 30.4288 28.3281 31.0844V44.3342H20.3782C20.3782 44.3342 20.3782 22.6576 20.3782 20.4846H28.3281V23.85C29.0503 22.5969 30.1007 21.5645 31.3661 20.8641C32.6316 20.1636 34.0641 19.8217 35.5095 19.8751C40.8094 19.8751 44.6519 23.2935 44.6519 30.6339V44.3607Z" fill="#252422" /></svg>