<svg width="53" height="53" viewBox="0 0 53 53" fill="none" xmlns="http://www.w3.org/2000/svg" xmlns:xlink="http://www.w3.org/1999/xlink" id="spotify-svg"><path d="M26.5 0C11.8886 0 0 11.8886 0 26.5C0 41.1114 11.8886 53 26.5 53C41.1114 53 53 41.1114 53 26.5C53 11.8886 41.1114 0 26.5 0ZM38.6569 38.2528C38.5322 38.4309 38.3736 38.5827 38.1902 38.6995C38.0068 38.8162 37.8021 38.8956 37.588 38.9332C37.3738 38.9707 37.1543 38.9656 36.9421 38.9182C36.7299 38.8708 36.5292 38.782 36.3514 38.6569C30.1404 34.291 19.8088 34.0492 12.8326 35.6756C12.6206 35.7248 12.4009 35.7317 12.1862 35.6959C11.9714 35.6602 11.7658 35.5825 11.5811 35.4673C11.3964 35.3521 11.2362 35.2017 11.1096 35.0246C10.9831 34.8475 10.8926 34.6472 10.8435 34.4351C10.7943 34.223 10.7874 34.0034 10.8231 33.7886C10.8589 33.5739 10.9366 33.3683 11.0518 33.1836C11.167 32.9989 11.3174 32.8387 11.4945 32.7121C11.6716 32.5855 11.8719 32.4951 12.084 32.4459C19.7524 30.6704 31.2137 30.9951 38.2528 35.9473C38.6118 36.1996 38.8561 36.5841 38.9318 37.0164C39.0076 37.4487 38.9087 37.8933 38.6569 38.2528ZM41.8899 31.7901C41.7629 31.9667 41.6023 32.1166 41.4174 32.2312C41.2325 32.3458 41.0268 32.4228 40.812 32.4579C40.5973 32.4929 40.3778 32.4854 40.166 32.4356C39.9542 32.3858 39.7543 32.2948 39.5778 32.1677C32.3731 26.9969 23.5221 25.7116 11.7097 28.1231C11.4965 28.1668 11.2769 28.1681 11.0632 28.127C10.8495 28.0858 10.6461 28.0029 10.4645 27.8831C10.2828 27.7633 10.1266 27.6089 10.0046 27.4287C9.88265 27.2485 9.79737 27.0461 9.75366 26.8329C9.70994 26.6198 9.70863 26.4001 9.74981 26.1864C9.79099 25.9728 9.87385 25.7693 9.99366 25.5877C10.1135 25.406 10.2679 25.2498 10.4481 25.1278C10.6283 25.0059 10.8307 24.9206 11.0439 24.8769C23.8202 22.2699 33.4993 23.7274 41.5089 29.4746C41.8657 29.7318 42.1061 30.1198 42.1775 30.5537C42.2489 30.9876 42.1455 31.4322 41.8899 31.7901ZM45.156 23.1113C45.0339 23.2915 44.8774 23.4459 44.6956 23.5656C44.5137 23.6853 44.3101 23.768 44.0962 23.8089C43.8824 23.8498 43.6626 23.8482 43.4494 23.8041C43.2363 23.76 43.0339 23.6743 42.8538 23.5519C33.7213 17.3542 19.8386 17.3244 10.8518 20.5044C10.6464 20.5768 10.4289 20.6081 10.2114 20.5964C9.99403 20.5848 9.78105 20.5304 9.58465 20.4364C9.38825 20.3425 9.21228 20.2107 9.0668 20.0487C8.92131 19.8868 8.80915 19.6977 8.73672 19.4924C8.66429 19.2871 8.63301 19.0695 8.64467 18.8521C8.65633 18.6347 8.7107 18.4217 8.80467 18.2253C8.89864 18.0289 9.03037 17.8529 9.19234 17.7075C9.35432 17.562 9.54337 17.4498 9.74869 17.3774C19.5239 13.9224 34.6719 13.9953 44.7188 20.8091C45.0808 21.0574 45.3299 21.4388 45.4118 21.8701C45.4937 22.3014 45.4018 22.7476 45.156 23.1113Z" fill="#252422" /></svg>